# xmcd CD database file
#
# Track frame offsets:
#	183
#	14345
#	27223
#	40233
#	54648
#	67878
#	81043
#	96035
#	109963
#	123868
#	137220
#	150660
#	163098
#	178408
#	192543
#	205908
#	220268
#	235170
#	249458
#	263065
#
# Disc length: 3689 seconds
#
# Revision: 0
# Processed by: cddbd v1.5.2PL0 Copyright (c) Steve Scherf et al.
# Submitted via: CDex 1.99.1
#
DISCID=1b0e6714
DTITLE=James "Yank" Rachel - James "Yank" Rachel Complete Recorded Works Vol 1 1934 - 1938
DYEAR=1900
DGENRE=Blues
TTITLE0=Blue And Worried Woman
TTITLE1=Sugar Farm Blues
TTITLE2=Stack O'Dollars Blues
TTITLE3=Night Latch Blues
TTITLE4=Squeaky Work Bench Blues
TTITLE5=Gravel Road Woman
TTITLE6=Katy Fly (Elijah Jones vcl)
TTITLE7=Big Boat (Elijah Jones vcl)
TTITLE8=Only Boy Child  (Elijah Jones vcl)
TTITLE9=Lonesome Man  (Elijah Jones vcl)
TTITLE10=Mean Actin' Mama  (Elijah Jones vcl)
TTITLE11=Stuff Stomp  (Elijah Jones vcl)
TTITLE12=J. L. Dairy Blues
TTITLE13=Rachel Blues
TTITLE14=Lake Michigan Blues
TTITLE15=I'm Wild And Crazy As I Can Be
TTITLE16=When You Feel Down And Out
TTITLE17=Texas Tommy
TTITLE18=It's All Over
TTITLE19=My Mind Got Bad
EXTD=
EXTT0=
EXTT1=
EXTT2=
EXTT3=
EXTT4=
EXTT5=
EXTT6=
EXTT7=
EXTT8=
EXTT9=
EXTT10=
EXTT11=
EXTT12=
EXTT13=
EXTT14=
EXTT15=
EXTT16=
EXTT17=
EXTT18=
EXTT19=
PLAYORDER=
